<?xml version="1.0" encoding="UTF-8"?>
<!DOCTYPE svg PUBLIC "-//W3C//DTD SVG 1.1//EN" "http://www.w3.org/Graphics/SVG/1.1/DTD/svg11.dtd">
<!-- Creator: CorelDRAW -->
<svg xmlns="http://www.w3.org/2000/svg" xml:space="preserve" width="6.82666in" height="6.82666in" style="shape-rendering:geometricPrecision; text-rendering:geometricPrecision; image-rendering:optimizeQuality; fill-rule:evenodd; clip-rule:evenodd"
viewBox="0 0 6.82666 6.82666"
 xmlns:xlink="http://www.w3.org/1999/xlink">
 <defs>
  <style type="text/css">
   <![CDATA[
    .fil3 {fill:none}
    .fil0 {fill:none;fill-rule:nonzero}
    .fil2 {fill:#ECEFF1}
    .fil1 {fill:#B0BEC5;fill-rule:nonzero}
   ]]>
  </style>
 </defs>
 <g id="Layer_x0020_1">
  <metadata id="CorelCorpID_0Corel-Layer"/>
  <g id="_311100128">
   <line id="_311109776" class="fil0" x1="3.20735" y1="5.75085" x2="3.20736" y2= "5.75085" />
   <line id="_311109152" class="fil0" x1="1.07352" y1="3.20863" x2="1.07351" y2= "3.20865" />
   <line id="_311109056" class="fil0" x1="0.861579" y1="3.18948" x2="0.861583" y2= "3.18947" />
   <path id="_311109104" class="fil1" d="M4.09733 0.89452c0.212067,0.143346 0.397012,0.322303 0.546945,0.52752 0.303445,0.415366 0.463587,0.938138 0.415256,1.49069 -0.0529724,0.605673 -0.346551,1.13265 -0.778374,1.49502 -0.431669,0.362232 -1.00173,0.559776 -1.60785,0.506756 -0.552094,-0.0482874 -1.03885,-0.296689 -1.39518,-0.667575 -0.176224,-0.183429 -0.320437,-0.39689 -0.424799,-0.630957 0.0508386,0.525909 0.262441,1.01081 0.588697,1.39962 0.422039,0.502941 1.03609,0.844898 1.74209,0.906646l1.5748e-005 7.87402e-006c0.705559,0.0617087 1.36952,-0.168555 1.87263,-0.590724 0.502949,-0.422043 0.844906,-1.03609 0.906657,-1.7421 0.0617126,-0.705567 -0.168551,-1.36953 -0.590728,-1.87264 -0.325949,-0.388437 -0.766445,-0.680795 -1.27536,-0.82226z"/>
   <g>
    <circle id="_311109272" class="fil2" cx="4.99451" cy="1.6666" r="0.0188268"/>
    <circle id="_311108888" class="fil2" cx="4.55625" cy="1.18874" r="0.0445197"/>
    <circle id="_311108936" class="fil2" cx="4.75494" cy="1.27964" r="0.049998"/>
    <circle id="_311108696" class="fil2" cx="4.81101" cy="1.48231" r="0.0610098"/>
    <circle id="_311109368" class="fil2" cx="5.02674" cy="1.4679" r="0.0445197"/>
    <circle id="_311108672" class="fil2" cx="4.92549" cy="1.40549" r="0.0188268"/>
    <circle id="_311108912" class="fil2" cx="4.71216" cy="1.36783" r="0.0188268"/>
    <circle id="_311107952" class="fil2" cx="4.46117" cy="1.08549" r="0.0188268"/>
    <circle id="_311108528" class="fil2" cx="5.16566" cy="1.64565" r="0.0610098"/>
    <circle id="_311108552" class="fil2" cx="5.01333" cy="1.81333" r="0.0445197"/>
    <circle id="_311108216" class="fil2" cx="5.31451" cy="1.83215" r="0.0188268"/>
    <circle id="_311108024" class="fil2" cx="5.12" cy="2.02666" r="0.0610098"/>
    <circle id="_311108144" class="fil2" cx="5.48452" cy="2.07118" r="0.0445197"/>
    <circle id="_311108000" class="fil2" cx="5.31451" cy="2.04549" r="0.0188268"/>
    <circle id="_311107928" class="fil2" cx="5.22667" cy="2.24" r="0.0445197"/>
    <circle id="_311108456" class="fil2" cx="5.60768" cy="2.40767" r="0.0610098"/>
    <circle id="_311107232" class="fil2" cx="5.20784" cy="2.47215" r="0.0188268"/>
    <circle id="_311107784" class="fil2" cx="5.41761" cy="2.49181" r="0.0445197"/>
    <circle id="_311107832" class="fil2" cx="5.48452" cy="2.30214" r="0.0445197"/>
    <circle id="_311107160" class="fil2" cx="5.27119" cy="2.71118" r="0.0445197"/>
    <circle id="_311107760" class="fil2" cx="5.71434" cy="2.72767" r="0.0610098"/>
    <circle id="_311107256" class="fil2" cx="5.50215" cy="2.81785" r="0.0445197"/>
    <circle id="_311107688" class="fil2" cx="5.45883" cy="2.68549" r="0.0188268"/>
    <circle id="_311107712" class="fil2" cx="5.22667" cy="2.98666" r="0.0610098"/>
    <circle id="_311107304" class="fil2" cx="5.80452" cy="3.03118" r="0.0445197"/>
    <circle id="_311107616" class="fil2" cx="5.48452" cy="3.13785" r="0.0445197"/>
    <circle id="_311107088" class="fil2" cx="5.52784" cy="3.00549" r="0.0188268"/>
    <circle id="_311106920" class="fil2" cx="5.18101" cy="3.24565" r="0.0610098"/>
    <circle id="_311107016" class="fil2" cx="5.22667" cy="3.41333" r="0.0445197"/>
    <circle id="_311107040" class="fil2" cx="5.50215" cy="3.36881" r="0.0445197"/>
    <circle id="_311106992" class="fil2" cx="5.80566" cy="3.21534" r="0.0610098"/>
    <circle id="_311106968" class="fil2" cx="5.69785" cy="3.35118" r="0.0445197"/>
    <circle id="_311106680" class="fil2" cx="5.63451" cy="3.2" r="0.0188268"/>
    <circle id="_311106464" class="fil2" cx="5.35216" cy="3.28783" r="0.0188268"/>
   </g>
   <circle id="_311106728" class="fil2" transform="matrix(-0.0372437 0.172529 0.172529 0.0372437 1.43432 4.60944)" r="0.106665"/>
   <circle id="_311106320" class="fil2" transform="matrix(-0.0880703 0.40798 0.40798 0.0880703 1.0597 4.08022)" r="0.106665"/>
   <circle id="_311106608" class="fil2" transform="matrix(-0.0989077 0.458183 0.458183 0.0989077 1.10662 4.29361)" r="0.106665"/>
   <circle id="_311106200" class="fil2" transform="matrix(-0.120692 0.559096 0.559096 0.120692 1.2929 4.39119)" r="0.106665"/>
   <circle id="_311106176" class="fil2" transform="matrix(-0.0880703 0.40798 0.40798 0.0880703 1.23329 4.59902)" r="0.106665"/>
   <circle id="_311105816" class="fil2" transform="matrix(-0.0372437 0.172529 0.172529 0.0372437 1.19365 4.48688)" r="0.106665"/>
   <circle id="_311106104" class="fil2" transform="matrix(-0.0372437 0.172529 0.172529 0.0372437 1.20186 4.27041)" r="0.106665"/>
   <circle id="_311105648" class="fil2" transform="matrix(-0.0372437 0.172529 0.172529 0.0372437 0.978831 3.96549)" r="0.106665"/>
   <circle id="_311105720" class="fil2" transform="matrix(-0.120692 0.559096 0.559096 0.120692 1.37773 4.77231)" r="0.106665"/>
   <circle id="_311106224" class="fil2" transform="matrix(-0.0880703 0.40798 0.40798 0.0880703 1.57377 4.6588)" r="0.106665"/>
   <circle id="_311105792" class="fil2" transform="matrix(-0.0372437 0.172529 0.172529 0.0372437 1.52862 4.95717)" r="0.106665"/>
   <circle id="_311106056" class="fil2" transform="matrix(-0.120692 0.559096 0.559096 0.120692 1.75979 4.80808)" r="0.106665"/>
   <circle id="_311105912" class="fil2" transform="matrix(-0.0880703 0.40798 0.40798 0.0880703 1.72639 5.17379)" r="0.106665"/>
   <circle id="_311105456" class="fil2" transform="matrix(-0.0372437 0.172529 0.172529 0.0372437 1.73715 5.00218)" r="0.106665"/>
   <circle id="_311105072" class="fil2" transform="matrix(-0.0880703 0.40798 0.40798 0.0880703 1.94582 4.95736)" r="0.106665"/>
   <circle id="_311104928" class="fil2" transform="matrix(-0.120692 0.559096 0.559096 0.120692 2.02932 5.36517)" r="0.106665"/>
   <circle id="_311105432" class="fil2" transform="matrix(-0.0372437 0.172529 0.172529 0.0372437 2.17672 4.98795)" r="0.106665"/>
   <circle id="_311105048" class="fil2" transform="matrix(-0.0880703 0.40798 0.40798 0.0880703 2.15167 5.19714)" r="0.106665"/>
   <circle id="_311105120" class="fil2" transform="matrix(-0.0880703 0.40798 0.40798 0.0880703 1.95216 5.22252)" r="0.106665"/>
   <circle id="_311104832" class="fil2" transform="matrix(-0.0880703 0.40798 0.40798 0.0880703 2.397 5.1003)" r="0.106665"/>
   <circle id="_311105360" class="fil2" transform="matrix(-0.120692 0.559096 0.559096 0.120692 2.31961 5.53696)" r="0.106665"/>
   <circle id="_311105528" class="fil2" transform="matrix(-0.0880703 0.40798 0.40798 0.0880703 2.45253 5.34857)" r="0.106665"/>
   <circle id="_311105240" class="fil2" transform="matrix(-0.0372437 0.172529 0.172529 0.0372437 2.33229 5.2783)" r="0.106665"/>
   <circle id="_311105480" class="fil2" transform="matrix(-0.120692 0.559096 0.559096 0.120692 2.67567 5.11492)" r="0.106665"/>
   <circle id="_311104544" class="fil2" transform="matrix(-0.0880703 0.40798 0.40798 0.0880703 2.59726 5.68915)" r="0.106665"/>
   <circle id="_311104568" class="fil2" transform="matrix(-0.0880703 0.40798 0.40798 0.0880703 2.76904 5.39886)" r="0.106665"/>
   <circle id="_311104280" class="fil2" transform="matrix(-0.0372437 0.172529 0.172529 0.0372437 2.63052 5.41328)" r="0.106665"/>
   <circle id="_311104376" class="fil2" transform="matrix(-0.120692 0.559096 0.559096 0.120692 2.93846 5.12494)" r="0.106665"/>
   <circle id="_311104232" class="fil2" transform="matrix(-0.0880703 0.40798 0.40798 0.0880703 3.09273 5.20494)" r="0.106665"/>
   <circle id="_311104184" class="fil2" transform="matrix(-0.0880703 0.40798 0.40798 0.0880703 2.99108 5.46483)" r="0.106665"/>
   <circle id="_311104136" class="fil2" transform="matrix(-0.120692 0.559096 0.559096 0.120692 2.77703 5.72912)" r="0.106665"/>
   <circle id="_311104040" class="fil2" transform="matrix(-0.0880703 0.40798 0.40798 0.0880703 2.93256 5.65241)" r="0.106665"/>
   <circle id="_311104424" class="fil2" transform="matrix(-0.0372437 0.172529 0.172529 0.0372437 2.79814 5.55859)" r="0.106665"/>
   <circle id="_311104712" class="fil2" transform="matrix(-0.0372437 0.172529 0.172529 0.0372437 2.94358 5.30114)" r="0.106665"/>
   <line id="_311103896" class="fil0" x1="3.84225" y1="5.72883" x2="3.84226" y2= "5.72883" />
   <circle id="_311103920" class="fil2" transform="matrix(-0.120692 0.559096 0.559096 0.120692 3.31057 5.09289)" r="0.106665"/>
   <circle id="_311103536" class="fil2" transform="matrix(-0.0880703 0.40798 0.40798 0.0880703 3.23215 5.66713)" r="0.106665"/>
   <circle id="_311103752" class="fil2" transform="matrix(-0.0880703 0.40798 0.40798 0.0880703 3.40394 5.37684)" r="0.106665"/>
   <circle id="_311103704" class="fil2" transform="matrix(-0.0372437 0.172529 0.172529 0.0372437 3.26542 5.39126)" r="0.106665"/>
   <circle id="_311103680" class="fil2" transform="matrix(-0.120692 0.559096 0.559096 0.120692 3.57336 5.10291)" r="0.106665"/>
   <circle id="_311103560" class="fil2" transform="matrix(-0.0880703 0.40798 0.40798 0.0880703 3.72763 5.18292)" r="0.106665"/>
   <circle id="_311103824" class="fil2" transform="matrix(-0.0880703 0.40798 0.40798 0.0880703 3.62598 5.4428)" r="0.106665"/>
   <circle id="_311103968" class="fil2" transform="matrix(-0.120692 0.559096 0.559096 0.120692 3.41193 5.7071)" r="0.106665"/>
   <circle id="_311103440" class="fil2" transform="matrix(-0.0880703 0.40798 0.40798 0.0880703 3.56746 5.63039)" r="0.106665"/>
   <circle id="_311103584" class="fil2" transform="matrix(-0.0372437 0.172529 0.172529 0.0372437 3.43304 5.53657)" r="0.106665"/>
   <circle id="_311102672" class="fil2" transform="matrix(-0.0372437 0.172529 0.172529 0.0372437 3.57848 5.27911)" r="0.106665"/>
   <line id="_311102480" class="fil0" x1="4.44813" y1="5.56925" x2="4.44813" y2= "5.56926" />
   <circle id="_311102888" class="fil2" transform="matrix(-0.120692 0.559096 0.559096 0.120692 3.91644 4.93332)" r="0.106665"/>
   <circle id="_311103032" class="fil2" transform="matrix(-0.0880703 0.40798 0.40798 0.0880703 3.83803 5.50755)" r="0.106665"/>
   <circle id="_311102864" class="fil2" transform="matrix(-0.0880703 0.40798 0.40798 0.0880703 4.00981 5.21727)" r="0.106665"/>
   <circle id="_311102816" class="fil2" transform="matrix(-0.0372437 0.172529 0.172529 0.0372437 3.8713 5.23168)" r="0.106665"/>
   <circle id="_311102768" class="fil2" transform="matrix(-0.120692 0.559096 0.559096 0.120692 4.17924 4.94334)" r="0.106665"/>
   <circle id="_311103056" class="fil2" transform="matrix(-0.0880703 0.40798 0.40798 0.0880703 4.3335 5.02335)" r="0.106665"/>
   <circle id="_311102720" class="fil2" transform="matrix(-0.0880703 0.40798 0.40798 0.0880703 4.23186 5.28323)" r="0.106665"/>
   <circle id="_311102600" class="fil2" transform="matrix(-0.120692 0.559096 0.559096 0.120692 4.01781 5.54752)" r="0.106665"/>
   <circle id="_311102456" class="fil2" transform="matrix(-0.0880703 0.40798 0.40798 0.0880703 4.17333 5.47081)" r="0.106665"/>
   <circle id="_311102360" class="fil2" transform="matrix(-0.0372437 0.172529 0.172529 0.0372437 4.03892 5.377)" r="0.106665"/>
   <circle id="_311102240" class="fil2" transform="matrix(-0.0372437 0.172529 0.172529 0.0372437 4.18435 5.11954)" r="0.106665"/>
   <line id="_311102000" class="fil0" x1="5.08813" y1="5.24925" x2="5.08813" y2= "5.24926" />
   <circle id="_311101976" class="fil2" transform="matrix(-0.120692 0.559096 0.559096 0.120692 4.55644 4.61332)" r="0.106665"/>
   <circle id="_311101880" class="fil2" transform="matrix(-0.0880703 0.40798 0.40798 0.0880703 4.47803 5.18755)" r="0.106665"/>
   <circle id="_311101832" class="fil2" transform="matrix(-0.0880703 0.40798 0.40798 0.0880703 4.64981 4.89727)" r="0.106665"/>
   <circle id="_311101712" class="fil2" transform="matrix(-0.0372437 0.172529 0.172529 0.0372437 4.5113 4.91168)" r="0.106665"/>
   <circle id="_311102120" class="fil2" transform="matrix(-0.120692 0.559096 0.559096 0.120692 4.81924 4.62334)" r="0.106665"/>
   <circle id="_311102408" class="fil2" transform="matrix(-0.0880703 0.40798 0.40798 0.0880703 4.9735 4.70335)" r="0.106665"/>
   <circle id="_311102288" class="fil2" transform="matrix(-0.0880703 0.40798 0.40798 0.0880703 4.87186 4.96323)" r="0.106665"/>
   <circle id="_311101160" class="fil2" transform="matrix(-0.120692 0.559096 0.559096 0.120692 4.65781 5.22752)" r="0.106665"/>
   <circle id="_311101448" class="fil2" transform="matrix(-0.0880703 0.40798 0.40798 0.0880703 4.81333 5.15081)" r="0.106665"/>
   <circle id="_311101232" class="fil2" transform="matrix(-0.0372437 0.172529 0.172529 0.0372437 4.67892 5.057)" r="0.106665"/>
   <circle id="_311101616" class="fil2" transform="matrix(-0.0372437 0.172529 0.172529 0.0372437 4.82435 4.79954)" r="0.106665"/>
   <line id="_311101376" class="fil0" x1="5.87831" y1="4.25413" x2="5.87832" y2= "4.25413" />
   <circle id="_311101256" class="fil2" transform="matrix(-0.120692 0.559096 0.559096 0.120692 5.34663 3.6182)" r="0.106665"/>
   <circle id="_311101520" class="fil2" transform="matrix(-0.0880703 0.40798 0.40798 0.0880703 5.26821 4.19243)" r="0.106665"/>
   <circle id="_311101664" class="fil2" transform="matrix(-0.0880703 0.40798 0.40798 0.0880703 5.44 3.90214)" r="0.106665"/>
   <circle id="_311101136" class="fil2" transform="matrix(-0.0372437 0.172529 0.172529 0.0372437 5.30148 3.91656)" r="0.106665"/>
   <circle id="_311101280" class="fil2" transform="matrix(-0.120692 0.559096 0.559096 0.120692 5.60942 3.62822)" r="0.106665"/>
   <circle id="_311100200" class="fil2" transform="matrix(-0.0880703 0.40798 0.40798 0.0880703 5.76369 3.70822)" r="0.106665"/>
   <circle id="_311100848" class="fil2" transform="matrix(-0.0880703 0.40798 0.40798 0.0880703 5.66204 3.96811)" r="0.106665"/>
   <circle id="_311100896" class="fil2" transform="matrix(-0.120692 0.559096 0.559096 0.120692 5.44799 4.2324)" r="0.106665"/>
   <circle id="_311100584" class="fil2" transform="matrix(-0.0880703 0.40798 0.40798 0.0880703 5.60352 4.15569)" r="0.106665"/>
   <circle id="_311100800" class="fil2" transform="matrix(-0.0372437 0.172529 0.172529 0.0372437 5.4691 4.06187)" r="0.106665"/>
   <circle id="_311100416" class="fil2" transform="matrix(-0.0372437 0.172529 0.172529 0.0372437 5.61454 3.80441)" r="0.106665"/>
   <circle id="_311100680" class="fil2" transform="matrix(-0.120692 0.559096 0.559096 0.120692 5.05897 3.90102)" r="0.106665"/>
   <circle id="_311100536" class="fil2" transform="matrix(-0.120692 0.559096 0.559096 0.120692 4.84564 4.11435)" r="0.106665"/>
   <circle id="_311100272" class="fil2" transform="matrix(-0.0880703 0.40798 0.40798 0.0880703 5.07547 4.31119)" r="0.106665"/>
   <circle id="_311100224" class="fil2" transform="matrix(-0.120692 0.559096 0.559096 0.120692 5.28769 4.6323)" r="0.106665"/>
   <circle id="_311100296" class="fil2" transform="matrix(-0.0880703 0.40798 0.40798 0.0880703 4.6312 4.32879)" r="0.106665"/>
   <circle id="_311099840" class="fil2" transform="matrix(-0.0880703 0.40798 0.40798 0.0880703 4.34931 4.57861)" r="0.106665"/>
   <circle id="_311099744" class="fil2" transform="matrix(-0.0880703 0.40798 0.40798 0.0880703 4.16 4.69333)" r="0.106665"/>
   <circle id="_311100080" class="fil2" transform="matrix(-0.120692 0.559096 0.559096 0.120692 3.68769 4.9523)" r="0.106665"/>
   <circle id="_311099600" class="fil2" transform="matrix(-0.0880703 0.40798 0.40798 0.0880703 5.12 4.90666)" r="0.106665"/>
   <circle id="_311099960" class="fil2" transform="matrix(-0.0880703 0.40798 0.40798 0.0880703 5.50213 4.43546)" r="0.106665"/>
   <circle id="_311099648" class="fil2" transform="matrix(-0.120692 0.559096 0.559096 0.120692 5.05897 4.52563)" r="0.106665"/>
   <circle id="_311099552" class="fil2" transform="matrix(-0.0372437 0.172529 0.172529 0.0372437 4.88783 4.39216)" r="0.106665"/>
  </g>
 </g>
 <rect class="fil3" width="6.82666" height="6.82666"/>
</svg>
